<?xml version="1.0" encoding="UTF-8" standalone="no"?>
<!DOCTYPE svg PUBLIC "-//W3C//DTD SVG 1.1//EN"
 "http://www.w3.org/Graphics/SVG/1.1/DTD/svg11.dtd">
<!-- Generated by graphviz version 15.1.0 (20260618.0150)
 -->
<!-- Title: LasMeninasRelations Pages: 1 -->
<svg width="1420pt" height="863pt"
 viewBox="0.00 0.00 1420.00 863.00" xmlns="http://www.w3.org/2000/svg" xmlns:xlink="http://www.w3.org/1999/xlink">
<g id="graph0" class="graph" transform="scale(1 1) rotate(0) translate(32.4 830.28)">
<title>LasMeninasRelations</title>
<polygon fill="#f6f0e4" stroke="none" points="-32.4,32.4 -32.4,-830.28 1388.04,-830.28 1388.04,32.4 -32.4,32.4"/>
<text xml:space="preserve" text-anchor="middle" x="343.62" y="-772.98" font-family="Helvetica,sans-Serif" font-size="22.00" fill="#152329">LAS MENINAS AS A RELATIONAL SYSTEM</text>
<text xml:space="preserve" text-anchor="middle" x="343.62" y="-750.48" font-family="Helvetica,sans-Serif" font-size="22.00" fill="#152329">The painting links what is visible to what is implied beyond its surface</text>
<g id="clust1" class="cluster">
<title>cluster_external</title>
<path fill="#f6f0e4" stroke="#b23a2b" stroke-width="1.7" stroke-dasharray="5,2" d="M829.55,-488.88C829.55,-488.88 1335.64,-488.88 1335.64,-488.88 1341.64,-488.88 1347.64,-494.88 1347.64,-500.88 1347.64,-500.88 1347.64,-602.88 1347.64,-602.88 1347.64,-608.88 1341.64,-614.88 1335.64,-614.88 1335.64,-614.88 829.55,-614.88 829.55,-614.88 823.55,-614.88 817.55,-608.88 817.55,-602.88 817.55,-602.88 817.55,-500.88 817.55,-500.88 817.55,-494.88 823.55,-488.88 829.55,-488.88"/>
<text xml:space="preserve" text-anchor="middle" x="1019.05" y="-589.98" font-family="Helvetica,sans-Serif" font-size="22.00" fill="#8e2c22">IMPLIED SPACE · in front of the canvas</text>
</g>
<g id="clust2" class="cluster">
<title>cluster_pictorial</title>
<path fill="#f6f0e4" stroke="#4d96a6" stroke-width="1.7" d="M20,-166.88C20,-166.88 987.97,-166.88 987.97,-166.88 993.97,-166.88 999.97,-172.88 999.97,-178.88 999.97,-178.88 999.97,-468.88 999.97,-468.88 999.97,-474.88 993.97,-480.88 987.97,-480.88 987.97,-480.88 20,-480.88 20,-480.88 14,-480.88 8,-474.88 8,-468.88 8,-468.88 8,-178.88 8,-178.88 8,-172.88 14,-166.88 20,-166.88"/>
<text xml:space="preserve" text-anchor="middle" x="197.12" y="-455.98" font-family="Helvetica,sans-Serif" font-size="22.00" fill="#245d68">PICTORIAL SPACE · inside the room</text>
</g>
<g id="clust3" class="cluster">
<title>cluster_legend</title>
<path fill="#f6f0e4" stroke="#c9c1b4" d="M101.85,-622.88C101.85,-622.88 975.97,-622.88 975.97,-622.88 981.97,-622.88 987.97,-628.88 987.97,-634.88 987.97,-634.88 987.97,-724.88 987.97,-724.88 987.97,-730.88 981.97,-736.88 975.97,-736.88 975.97,-736.88 101.85,-736.88 101.85,-736.88 95.85,-736.88 89.85,-730.88 89.85,-724.88 89.85,-724.88 89.85,-634.88 89.85,-634.88 89.85,-628.88 95.85,-622.88 101.85,-622.88"/>
<text xml:space="preserve" text-anchor="middle" x="177.35" y="-711.98" font-family="Helvetica,sans-Serif" font-size="22.00" fill="#5e625f">RELATION KEY</text>
</g>
<!-- viewer&#45;&gt;royalCouple -->
<g id="edge7" class="edge">
<title>viewer&#45;&gt;royalCouple</title>
<path fill="none" stroke="#4d96a6" stroke-width="1.8" stroke-dasharray="5,2" d="M980.44,-531.88C1031.79,-531.88 1101.94,-531.88 1157.25,-531.88"/>
<polygon fill="#4d96a6" stroke="#4d96a6" stroke-width="1.8" points="1157.18,-534.51 1164.68,-531.88 1157.18,-529.26 1157.18,-534.51"/>
<text xml:space="preserve" text-anchor="middle" x="1073.97" y="-533.63" font-family="Helvetica,sans-Serif" font-size="10.00" fill="#245d68">shares implied viewing zone</text>
</g>
<!-- viewer&#45;&gt;infanta -->
<g id="edge1" class="edge">
<title>viewer&#45;&gt;infanta</title>
<path fill="none" stroke="#b23a2b" stroke-width="2.3" d="M850.4,-509.47C807.75,-493 748.41,-470.08 696.3,-449.88 682.1,-444.38 666.88,-438.47 652.41,-432.84"/>
<polygon fill="#b23a2b" stroke="#b23a2b" stroke-width="2.3" points="653.72,-430.53 645.78,-430.26 651.81,-435.43 653.72,-430.53"/>
<text xml:space="preserve" text-anchor="middle" x="751.42" y="-494.17" font-family="Helvetica,sans-Serif" font-size="10.00" fill="#8e2c22">looks toward</text>
</g>
<!-- royalCouple&#45;&gt;mirror -->
<g id="edge6" class="edge">
<title>royalCouple&#45;&gt;mirror</title>
<path fill="none" stroke="#b23a2b" stroke-width="2.3" d="M1237.93,-509.69C1213.55,-446.78 1134.22,-267.48 999.97,-199.88 762.4,-80.26 435.94,-147.04 273.01,-193.33"/>
<polygon fill="#b23a2b" stroke="#b23a2b" stroke-width="2.3" points="272.34,-190.79 265.86,-195.39 273.79,-195.84 272.34,-190.79"/>
<text xml:space="preserve" text-anchor="middle" x="751.42" y="-142.99" font-family="Helvetica,sans-Serif" font-size="10.00" fill="#8e2c22">reflected by</text>
</g>
<!-- canvas&#45;&gt;hiddenSubject -->
<g id="edge8" class="edge">
<title>canvas&#45;&gt;hiddenSubject</title>
<path fill="none" stroke="#b23a2b" stroke-width="1.8" d="M663.86,-315.84C706.44,-313.36 759.83,-313.34 806.55,-322.63 823.52,-326.01 841.2,-332.26 856.98,-338.93"/>
<polygon fill="#b23a2b" stroke="#b23a2b" stroke-width="1.8" points="855.61,-341.2 863.53,-341.8 857.71,-336.39 855.61,-341.2"/>
<text xml:space="preserve" text-anchor="middle" x="751.42" y="-324.38" font-family="Helvetica,sans-Serif" font-size="10.00" fill="#8e2c22">occludes</text>
</g>
<!-- hiddenSubject&#45;&gt;royalCouple -->
<g id="edge10" class="edge">
<title>hiddenSubject&#45;&gt;royalCouple</title>
<path fill="none" stroke="#7c8384" stroke-width="1.8" stroke-dasharray="5,2" d="M955.07,-387.06C1016.28,-417.52 1126.25,-472.26 1192.06,-505.01"/>
<polygon fill="#7c8384" stroke="#7c8384" stroke-width="1.8" points="1190.72,-507.28 1198.6,-508.27 1193.06,-502.58 1190.72,-507.28"/>
<text xml:space="preserve" text-anchor="middle" x="1073.97" y="-474.85" font-family="Helvetica,sans-Serif" font-size="10.00" fill="#616768">possibly depicts</text>
</g>
<!-- painter&#45;&gt;viewer -->
<g id="edge2" class="edge">
<title>painter&#45;&gt;viewer</title>
<path fill="none" stroke="#b23a2b" stroke-width="2.3" d="M248.07,-335.19C270.43,-341.4 293.73,-351.01 311.88,-365.88 336.02,-385.67 320.03,-408.99 344.88,-427.88 472.24,-524.71 538.62,-478.79 696.3,-505.88 739.53,-513.31 788.06,-519.42 827.79,-523.85"/>
<polygon fill="#b23a2b" stroke="#b23a2b" stroke-width="2.3" points="827.29,-526.43 835.03,-524.64 827.86,-521.21 827.29,-526.43"/>
<text xml:space="preserve" text-anchor="middle" x="584.71" y="-502.53" font-family="Helvetica,sans-Serif" font-size="10.00" fill="#8e2c22">looks toward</text>
</g>
<!-- painter&#45;&gt;canvas -->
<g id="edge9" class="edge">
<title>painter&#45;&gt;canvas</title>
<path fill="none" stroke="#4d96a6" stroke-width="1.8" d="M247.95,-323.88C317.86,-323.88 421.54,-323.88 495.17,-323.88"/>
<polygon fill="#4d96a6" stroke="#4d96a6" stroke-width="1.8" points="495.13,-326.51 502.63,-323.88 495.13,-321.26 495.13,-326.51"/>
<text xml:space="preserve" text-anchor="middle" x="409" y="-325.63" font-family="Helvetica,sans-Serif" font-size="10.00" fill="#245d68">works behind</text>
</g>
<!-- infanta&#45;&gt;viewer -->
<g id="edge3" class="edge">
<title>infanta&#45;&gt;viewer</title>
<path fill="none" stroke="#b23a2b" stroke-width="2.3" d="M659.95,-396.69C707.77,-394.49 768,-400.55 806.55,-436.63 824.51,-453.44 802.2,-471.66 817.55,-490.88 821.26,-495.54 825.62,-499.68 830.38,-503.36"/>
<polygon fill="#b23a2b" stroke="#b23a2b" stroke-width="2.3" points="828.8,-505.46 836.46,-507.55 831.77,-501.13 828.8,-505.46"/>
<text xml:space="preserve" text-anchor="middle" x="751.42" y="-438.38" font-family="Helvetica,sans-Serif" font-size="10.00" fill="#8e2c22">looks toward</text>
</g>
<!-- attendants&#45;&gt;infanta -->
<g id="edge4" class="edge">
<title>attendants&#45;&gt;infanta</title>
<path fill="none" stroke="#4d96a6" stroke-width="1.8" d="M248.43,-406.88C319.73,-406.88 425.86,-406.88 499.54,-406.88"/>
<polygon fill="#4d96a6" stroke="#4d96a6" stroke-width="1.8" points="499.49,-409.51 506.99,-406.88 499.49,-404.26 499.49,-409.51"/>
<text xml:space="preserve" text-anchor="middle" x="409" y="-408.63" font-family="Helvetica,sans-Serif" font-size="10.00" fill="#245d68">orient around</text>
</g>
<!-- mirror&#45;&gt;royalCouple -->
<g id="edge5" class="edge">
<title>mirror&#45;&gt;royalCouple</title>
<path fill="none" stroke="#b23a2b" stroke-width="2.3" d="M224.49,-188.18C257.43,-166.62 301.7,-141.27 344.88,-127.88 680.48,-23.81 866.2,97.85 1135.47,-127.88 1193.26,-176.33 1230,-411.46 1241.86,-498.98"/>
<polygon fill="#b23a2b" stroke="#b23a2b" stroke-width="2.3" points="1239.22,-499.07 1242.82,-506.16 1244.43,-498.38 1239.22,-499.07"/>
<text xml:space="preserve" text-anchor="middle" x="751.42" y="-18.31" font-family="Helvetica,sans-Serif" font-size="10.00" fill="#8e2c22">contains image of</text>
</g>
<!-- mirror&#45;&gt;rearDoor -->
<g id="edge13" class="edge">
<title>mirror&#45;&gt;rearDoor</title>
<path fill="none" stroke="#4d96a6" stroke-width="1.8" stroke-dasharray="5,2" d="M312.78,-231.01C377.35,-233.37 451.44,-236.06 505.8,-238.04"/>
<polygon fill="#4d96a6" stroke="#4d96a6" stroke-width="1.8" points="505.4,-240.66 512.99,-238.31 505.59,-235.41 505.4,-240.66"/>
<text xml:space="preserve" text-anchor="middle" x="409" y="-238.2" font-family="Helvetica,sans-Serif" font-size="10.00" fill="#245d68">counterpoint: image / opening</text>
</g>
<!-- rearDoor&#45;&gt;viewer -->
<g id="edge12" class="edge">
<title>rearDoor&#45;&gt;viewer</title>
<path fill="none" stroke="#4d96a6" stroke-width="1.8" stroke-dasharray="5,2" d="M635.94,-263.02C645.66,-268.65 655.3,-275.29 663.3,-282.88 683.7,-302.24 674.72,-318.85 696.3,-336.88 736.63,-370.58 774.76,-337.79 806.55,-379.63 836.61,-419.19 788.56,-450.53 817.55,-490.88 821.2,-495.96 825.62,-500.42 830.54,-504.34"/>
<polygon fill="#4d96a6" stroke="#4d96a6" stroke-width="1.8" points="828.76,-506.29 836.4,-508.48 831.79,-502.01 828.76,-506.29"/>
<text xml:space="preserve" text-anchor="middle" x="751.42" y="-381.38" font-family="Helvetica,sans-Serif" font-size="10.00" fill="#245d68">extends depth away from</text>
</g>
<!-- rearDoor&#45;&gt;nieto -->
<g id="edge11" class="edge">
<title>rearDoor&#45;&gt;nieto</title>
<path fill="none" stroke="#4d96a6" stroke-width="1.8" d="M653.78,-240.88C710.11,-240.88 789.55,-240.88 844.68,-240.88"/>
<polygon fill="#4d96a6" stroke="#4d96a6" stroke-width="1.8" points="844.46,-243.51 851.96,-240.88 844.46,-238.26 844.46,-243.51"/>
<text xml:space="preserve" text-anchor="middle" x="751.42" y="-242.63" font-family="Helvetica,sans-Serif" font-size="10.00" fill="#245d68">frames / contains</text>
</g>
<!-- legendCritical&#45;&gt;legendSpatial -->
<g id="edge14" class="edge">
<title>legendCritical&#45;&gt;legendSpatial</title>
<path fill="none" stroke="#4d96a6" stroke-width="1.8" d="M236.73,-671.88C307.54,-671.88 421.24,-671.88 499.06,-671.88"/>
<polygon fill="#4d96a6" stroke="#4d96a6" stroke-width="1.8" points="498.62,-674.51 506.12,-671.88 498.62,-669.26 498.62,-674.51"/>
<text xml:space="preserve" text-anchor="middle" x="409" y="-673.63" font-family="Helvetica,sans-Serif" font-size="10.00" fill="#245d68">relation</text>
</g>
<!-- legendSpatial&#45;&gt;legendInferred -->
<g id="edge15" class="edge">
<title>legendSpatial&#45;&gt;legendInferred</title>
<path fill="none" stroke="#7c8384" stroke-width="1.8" stroke-dasharray="5,2" d="M660.58,-671.88C713.49,-671.88 784,-671.88 836.3,-671.88"/>
<polygon fill="#7c8384" stroke="#7c8384" stroke-width="1.8" points="836.29,-674.51 843.79,-671.88 836.29,-669.26 836.29,-674.51"/>
<text xml:space="preserve" text-anchor="middle" x="751.42" y="-673.63" font-family="Helvetica,sans-Serif" font-size="10.00" fill="#616768">inference</text>
</g>
<!-- viewer -->
<g id="node1" class="node">
<title>viewer</title>
<path fill="#b23a2b" stroke="#b23a2b" stroke-width="2.2" d="M967.47,-553.27C967.47,-553.27 851.55,-553.27 851.55,-553.27 845.55,-553.27 839.55,-547.27 839.55,-541.27 839.55,-541.27 839.55,-522.49 839.55,-522.49 839.55,-516.49 845.55,-510.49 851.55,-510.49 851.55,-510.49 967.47,-510.49 967.47,-510.49 973.47,-510.49 979.47,-516.49 979.47,-522.49 979.47,-522.49 979.47,-541.27 979.47,-541.27 979.47,-547.27 973.47,-553.27 967.47,-553.27"/>
<text xml:space="preserve" text-anchor="middle" x="909.51" y="-533.23" font-family="Helvetica,sans-Serif" font-size="12.00" fill="#fff9ef">VIEWER</text>
<text xml:space="preserve" text-anchor="middle" x="909.51" y="-520.48" font-family="Helvetica,sans-Serif" font-size="12.00" fill="#fff9ef">our occupied position</text>
</g>
<!-- royalCouple -->
<g id="node2" class="node">
<title>royalCouple</title>
<path fill="#fff9ef" stroke="#b23a2b" stroke-width="2.2" d="M1313.64,-553.27C1313.64,-553.27 1180.47,-553.27 1180.47,-553.27 1174.47,-553.27 1168.47,-547.27 1168.47,-541.27 1168.47,-541.27 1168.47,-522.49 1168.47,-522.49 1168.47,-516.49 1174.47,-510.49 1180.47,-510.49 1180.47,-510.49 1313.64,-510.49 1313.64,-510.49 1319.64,-510.49 1325.64,-516.49 1325.64,-522.49 1325.64,-522.49 1325.64,-541.27 1325.64,-541.27 1325.64,-547.27 1319.64,-553.27 1313.64,-553.27"/>
<text xml:space="preserve" text-anchor="middle" x="1247.05" y="-533.23" font-family="Helvetica,sans-Serif" font-size="12.00" fill="#152329">ROYAL COUPLE</text>
<text xml:space="preserve" text-anchor="middle" x="1247.05" y="-520.48" font-family="Helvetica,sans-Serif" font-size="12.00" fill="#152329">implied physical position</text>
</g>
<!-- canvas -->
<g id="node3" class="node">
<title>canvas</title>
<path fill="#152329" stroke="#152329" stroke-width="1.6" d="M651.3,-345.27C651.3,-345.27 518.13,-345.27 518.13,-345.27 512.13,-345.27 506.13,-339.27 506.13,-333.27 506.13,-333.27 506.13,-314.49 506.13,-314.49 506.13,-308.49 512.13,-302.49 518.13,-302.49 518.13,-302.49 651.3,-302.49 651.3,-302.49 657.3,-302.49 663.3,-308.49 663.3,-314.49 663.3,-314.49 663.3,-333.27 663.3,-333.27 663.3,-339.27 657.3,-345.27 651.3,-345.27"/>
<text xml:space="preserve" text-anchor="middle" x="584.71" y="-325.23" font-family="Helvetica,sans-Serif" font-size="12.00" fill="#fff9ef">REVERSE OF CANVAS</text>
<text xml:space="preserve" text-anchor="middle" x="584.71" y="-312.48" font-family="Helvetica,sans-Serif" font-size="12.00" fill="#fff9ef">visible barrier</text>
</g>
<!-- hiddenSubject -->
<g id="node4" class="node">
<title>hiddenSubject</title>
<path fill="#fff9ef" stroke="#b23a2b" stroke-width="1.6" stroke-dasharray="5,2" d="M965.97,-386.27C965.97,-386.27 853.05,-386.27 853.05,-386.27 847.05,-386.27 841.05,-380.27 841.05,-374.27 841.05,-374.27 841.05,-355.49 841.05,-355.49 841.05,-349.49 847.05,-343.49 853.05,-343.49 853.05,-343.49 965.97,-343.49 965.97,-343.49 971.97,-343.49 977.97,-349.49 977.97,-355.49 977.97,-355.49 977.97,-374.27 977.97,-374.27 977.97,-380.27 971.97,-386.27 965.97,-386.27"/>
<text xml:space="preserve" text-anchor="middle" x="909.51" y="-366.23" font-family="Helvetica,sans-Serif" font-size="12.00" fill="#152329">PAINTED SUBJECT</text>
<text xml:space="preserve" text-anchor="middle" x="909.51" y="-353.48" font-family="Helvetica,sans-Serif" font-size="12.00" fill="#152329">content withheld</text>
</g>
<!-- painter -->
<g id="node5" class="node">
<title>painter</title>
<path fill="#e2edf0" stroke="#152329" stroke-width="1.6" d="M235.27,-345.27C235.27,-345.27 106.6,-345.27 106.6,-345.27 100.6,-345.27 94.6,-339.27 94.6,-333.27 94.6,-333.27 94.6,-314.49 94.6,-314.49 94.6,-308.49 100.6,-302.49 106.6,-302.49 106.6,-302.49 235.27,-302.49 235.27,-302.49 241.27,-302.49 247.27,-308.49 247.27,-314.49 247.27,-314.49 247.27,-333.27 247.27,-333.27 247.27,-339.27 241.27,-345.27 235.27,-345.27"/>
<text xml:space="preserve" text-anchor="middle" x="170.94" y="-325.23" font-family="Helvetica,sans-Serif" font-size="12.00" fill="#152329">VELÁZQUEZ</text>
<text xml:space="preserve" text-anchor="middle" x="170.94" y="-312.48" font-family="Helvetica,sans-Serif" font-size="12.00" fill="#152329">painter inside the scene</text>
</g>
<!-- infanta -->
<g id="node6" class="node">
<title>infanta</title>
<path fill="#e2edf0" stroke="#152329" stroke-width="1.6" d="M647.17,-428.27C647.17,-428.27 522.25,-428.27 522.25,-428.27 516.25,-428.27 510.25,-422.27 510.25,-416.27 510.25,-416.27 510.25,-397.49 510.25,-397.49 510.25,-391.49 516.25,-385.49 522.25,-385.49 522.25,-385.49 647.17,-385.49 647.17,-385.49 653.17,-385.49 659.17,-391.49 659.17,-397.49 659.17,-397.49 659.17,-416.27 659.17,-416.27 659.17,-422.27 653.17,-428.27 647.17,-428.27"/>
<text xml:space="preserve" text-anchor="middle" x="584.71" y="-408.23" font-family="Helvetica,sans-Serif" font-size="12.00" fill="#152329">INFANTA MARGARITA</text>
<text xml:space="preserve" text-anchor="middle" x="584.71" y="-395.48" font-family="Helvetica,sans-Serif" font-size="12.00" fill="#152329">attention anchor</text>
</g>
<!-- attendants -->
<g id="node7" class="node">
<title>attendants</title>
<path fill="#f6f0e4" stroke="#152329" stroke-width="1.6" d="M236.02,-428.27C236.02,-428.27 105.85,-428.27 105.85,-428.27 99.85,-428.27 93.85,-422.27 93.85,-416.27 93.85,-416.27 93.85,-397.49 93.85,-397.49 93.85,-391.49 99.85,-385.49 105.85,-385.49 105.85,-385.49 236.02,-385.49 236.02,-385.49 242.02,-385.49 248.02,-391.49 248.02,-397.49 248.02,-397.49 248.02,-416.27 248.02,-416.27 248.02,-422.27 242.02,-428.27 236.02,-428.27"/>
<text xml:space="preserve" text-anchor="middle" x="170.94" y="-408.23" font-family="Helvetica,sans-Serif" font-size="12.00" fill="#152329">ATTENDANTS + DOG</text>
<text xml:space="preserve" text-anchor="middle" x="170.94" y="-395.48" font-family="Helvetica,sans-Serif" font-size="12.00" fill="#152329">foreground constellation</text>
</g>
<!-- mirror -->
<g id="node8" class="node">
<title>mirror</title>
<path fill="#b23a2b" stroke="#b23a2b" stroke-width="2.2" d="M307.88,-221.36C307.88,-221.36 307.88,-230.4 307.88,-230.4 307.88,-234.92 303.48,-240.5 299.09,-241.55 299.09,-241.55 236.46,-256.52 236.46,-256.52 232.06,-257.57 223.14,-258.63 218.62,-258.63 218.62,-258.63 123.26,-258.63 123.26,-258.63 118.74,-258.63 109.82,-257.57 105.42,-256.52 105.42,-256.52 42.79,-241.55 42.79,-241.55 38.4,-240.5 34,-234.92 34,-230.4 34,-230.4 34,-221.36 34,-221.36 34,-216.84 38.4,-211.27 42.79,-210.22 42.79,-210.22 105.42,-195.24 105.42,-195.24 109.82,-194.19 118.74,-193.14 123.26,-193.14 123.26,-193.14 218.62,-193.14 218.62,-193.14 223.14,-193.14 232.06,-194.19 236.46,-195.24 236.46,-195.24 299.09,-210.22 299.09,-210.22 303.48,-211.27 307.88,-216.84 307.88,-221.36"/>
<path fill="none" stroke="#b23a2b" stroke-width="2.2" d="M311.88,-220.31C311.88,-220.31 311.88,-231.46 311.88,-231.46 311.88,-237.03 306.46,-243.9 301.04,-245.19 301.04,-245.19 238.97,-260.03 238.97,-260.03 233.55,-261.33 222.56,-262.63 216.99,-262.63 216.99,-262.63 124.89,-262.63 124.89,-262.63 119.32,-262.63 108.33,-261.33 102.91,-260.03 102.91,-260.03 40.84,-245.19 40.84,-245.19 35.42,-243.9 30,-237.03 30,-231.46 30,-231.46 30,-220.31 30,-220.31 30,-214.74 35.42,-207.87 40.84,-206.57 40.84,-206.57 102.91,-191.73 102.91,-191.73 108.33,-190.44 119.32,-189.14 124.89,-189.14 124.89,-189.14 216.99,-189.14 216.99,-189.14 222.56,-189.14 233.55,-190.44 238.97,-191.73 238.97,-191.73 301.04,-206.57 301.04,-206.57 306.46,-207.87 311.88,-214.74 311.88,-220.31"/>
<text xml:space="preserve" text-anchor="middle" x="170.94" y="-227.23" font-family="Helvetica,sans-Serif" font-size="12.00" fill="#fff9ef">MIRROR</text>
<text xml:space="preserve" text-anchor="middle" x="170.94" y="-214.48" font-family="Helvetica,sans-Serif" font-size="12.00" fill="#fff9ef">small image / large inference</text>
</g>
<!-- rearDoor -->
<g id="node9" class="node">
<title>rearDoor</title>
<polygon fill="#e2edf0" stroke="#152329" stroke-width="1.6" points="653.17,-262.27 516.25,-262.27 516.25,-258.27 512.25,-258.27 512.25,-254.27 516.25,-254.27 516.25,-227.49 512.25,-227.49 512.25,-223.49 516.25,-223.49 516.25,-219.49 653.17,-219.49 653.17,-262.27"/>
<polyline fill="none" stroke="#152329" stroke-width="1.6" points="516.25,-258.27 520.25,-258.27 520.25,-254.27 516.25,-254.27"/>
<polyline fill="none" stroke="#152329" stroke-width="1.6" points="516.25,-227.49 520.25,-227.49 520.25,-223.49 516.25,-223.49"/>
<text xml:space="preserve" text-anchor="middle" x="584.71" y="-242.23" font-family="Helvetica,sans-Serif" font-size="12.00" fill="#152329">OPEN REAR DOOR</text>
<text xml:space="preserve" text-anchor="middle" x="584.71" y="-229.48" font-family="Helvetica,sans-Serif" font-size="12.00" fill="#152329">depth and exit</text>
</g>
<!-- nieto -->
<g id="node10" class="node">
<title>nieto</title>
<path fill="#f6f0e4" stroke="#152329" stroke-width="1.6" d="M951.72,-262.27C951.72,-262.27 867.3,-262.27 867.3,-262.27 861.3,-262.27 855.3,-256.27 855.3,-250.27 855.3,-250.27 855.3,-231.49 855.3,-231.49 855.3,-225.49 861.3,-219.49 867.3,-219.49 867.3,-219.49 951.72,-219.49 951.72,-219.49 957.72,-219.49 963.72,-225.49 963.72,-231.49 963.72,-231.49 963.72,-250.27 963.72,-250.27 963.72,-256.27 957.72,-262.27 951.72,-262.27"/>
<text xml:space="preserve" text-anchor="middle" x="909.51" y="-242.23" font-family="Helvetica,sans-Serif" font-size="12.00" fill="#152329">JOSÉ NIETO</text>
<text xml:space="preserve" text-anchor="middle" x="909.51" y="-229.48" font-family="Helvetica,sans-Serif" font-size="12.00" fill="#152329">threshold figure</text>
</g>
<!-- legendCritical -->
<g id="node11" class="node">
<title>legendCritical</title>
<path fill="#b23a2b" stroke="#b23a2b" stroke-width="1.6" d="M224.02,-689.88C224.02,-689.88 117.85,-689.88 117.85,-689.88 111.85,-689.88 105.85,-683.88 105.85,-677.88 105.85,-677.88 105.85,-665.88 105.85,-665.88 105.85,-659.88 111.85,-653.88 117.85,-653.88 117.85,-653.88 224.02,-653.88 224.02,-653.88 230.02,-653.88 236.02,-659.88 236.02,-665.88 236.02,-665.88 236.02,-677.88 236.02,-677.88 236.02,-683.88 230.02,-689.88 224.02,-689.88"/>
<text xml:space="preserve" text-anchor="middle" x="170.94" y="-666.86" font-family="Helvetica,sans-Serif" font-size="12.00" fill="#fff9ef">critical reflexive link</text>
</g>
<!-- legendSpatial -->
<g id="node12" class="node">
<title>legendSpatial</title>
<path fill="#e2edf0" stroke="#4d96a6" stroke-width="1.6" d="M647.92,-689.88C647.92,-689.88 521.5,-689.88 521.5,-689.88 515.5,-689.88 509.5,-683.88 509.5,-677.88 509.5,-677.88 509.5,-665.88 509.5,-665.88 509.5,-659.88 515.5,-653.88 521.5,-653.88 521.5,-653.88 647.92,-653.88 647.92,-653.88 653.92,-653.88 659.92,-659.88 659.92,-665.88 659.92,-665.88 659.92,-677.88 659.92,-677.88 659.92,-683.88 653.92,-689.88 647.92,-689.88"/>
<text xml:space="preserve" text-anchor="middle" x="584.71" y="-666.86" font-family="Helvetica,sans-Serif" font-size="12.00" fill="#152329">retained spatial relation</text>
</g>
<!-- legendInferred -->
<g id="node13" class="node">
<title>legendInferred</title>
<path fill="#fff9ef" stroke="#7c8384" stroke-width="1.6" stroke-dasharray="5,2" d="M959.97,-689.88C959.97,-689.88 859.05,-689.88 859.05,-689.88 853.05,-689.88 847.05,-683.88 847.05,-677.88 847.05,-677.88 847.05,-665.88 847.05,-665.88 847.05,-659.88 853.05,-653.88 859.05,-653.88 859.05,-653.88 959.97,-653.88 959.97,-653.88 965.97,-653.88 971.97,-659.88 971.97,-665.88 971.97,-665.88 971.97,-677.88 971.97,-677.88 971.97,-683.88 965.97,-689.88 959.97,-689.88"/>
<text xml:space="preserve" text-anchor="middle" x="909.51" y="-666.86" font-family="Helvetica,sans-Serif" font-size="12.00" fill="#152329">inferred / uncertain</text>
</g>
</g>
</svg>
