<?xml version="1.0" encoding="UTF-8" standalone="no"?>
<!DOCTYPE svg PUBLIC "-//W3C//DTD SVG 1.1//EN"
 "http://www.w3.org/Graphics/SVG/1.1/DTD/svg11.dtd">
<!-- Generated by graphviz version 15.1.0 (20260618.0150)
 -->
<!-- Title: MirrorDeletionDifference Pages: 1 -->
<svg width="1204pt" height="653pt"
 viewBox="0.00 0.00 1204.00 653.00" xmlns="http://www.w3.org/2000/svg" xmlns:xlink="http://www.w3.org/1999/xlink">
<g id="graph0" class="graph" transform="scale(1 1) rotate(0) translate(32.4 620.68)">
<title>MirrorDeletionDifference</title>
<polygon fill="#f6f0e4" stroke="none" points="-32.4,32.4 -32.4,-620.68 1171.4,-620.68 1171.4,32.4 -32.4,32.4"/>
<text xml:space="preserve" text-anchor="middle" x="321.88" y="-563.38" font-family="Helvetica,sans-Serif" font-size="22.00" fill="#152329">TOPOLOGY ABLATION · WHAT THE MIRROR CONNECTS</text>
<text xml:space="preserve" text-anchor="middle" x="321.88" y="-540.88" font-family="Helvetica,sans-Serif" font-size="22.00" fill="#152329">Pixel area changes locally; the relational path changes globally</text>
<text xml:space="preserve" text-anchor="middle" x="321.88" y="-518.38" font-family="Helvetica,sans-Serif" font-size="22.00" fill="#152329">Cyan = retained relation &#160;&#160;· &#160;&#160;Cinnabar dashed = removed relation</text>
<g id="clust1" class="cluster">
<title>cluster_original</title>
<path fill="#f6f0e4" stroke="#4d96a6" stroke-width="2" d="M20,-274.07C20,-274.07 583,-274.07 583,-274.07 589,-274.07 595,-280.07 595,-286.07 595,-286.07 595,-492.78 595,-492.78 595,-498.78 589,-504.78 583,-504.78 583,-504.78 20,-504.78 20,-504.78 14,-504.78 8,-498.78 8,-492.78 8,-492.78 8,-286.07 8,-286.07 8,-280.07 14,-274.07 20,-274.07"/>
<text xml:space="preserve" text-anchor="middle" x="195.25" y="-479.88" font-family="Helvetica,sans-Serif" font-size="22.00" fill="#245d68">A · ORIGINAL — reflexive loop intact</text>
</g>
<g id="clust4" class="cluster">
<title>cluster_deleted</title>
<path fill="#f6f0e4" stroke="#b23a2b" stroke-width="2" d="M393,-8C393,-8 1119,-8 1119,-8 1125,-8 1131,-14 1131,-20 1131,-20 1131,-245.07 1131,-245.07 1131,-251.07 1125,-257.07 1119,-257.07 1119,-257.07 393,-257.07 393,-257.07 387,-257.07 381,-251.07 381,-245.07 381,-245.07 381,-20 381,-20 381,-14 387,-8 393,-8"/>
<text xml:space="preserve" text-anchor="middle" x="668" y="-232.17" font-family="Helvetica,sans-Serif" font-size="22.00" fill="#8e2c22">B · MIRROR REMOVED — local pixels, missing endpoint</text>
</g>
<!-- oViewer&#45;&gt;oInfanta -->
<g id="edge1" class="edge">
<title>oViewer&#45;&gt;oInfanta</title>
<path fill="none" stroke="#b23a2b" stroke-width="1.8" d="M84.73,-408.46C106.45,-390.11 140.71,-361.17 164.87,-340.76"/>
<polygon fill="#b23a2b" stroke="#b23a2b" stroke-width="1.8" points="166.37,-342.79 170.24,-336.22 163.12,-338.94 166.37,-342.79"/>
<text xml:space="preserve" text-anchor="middle" x="162.85" y="-364.64" font-family="Helvetica,sans-Serif" font-size="9.50" fill="#8e2c22">looks toward</text>
</g>
<!-- oViewer&#45;&gt;oRoyal -->
<g id="edge7" class="edge">
<title>oViewer&#45;&gt;oRoyal</title>
<path fill="none" stroke="#4d96a6" stroke-width="1.8" stroke-dasharray="5,2" d="M98.38,-426.97C128.79,-426.97 174.15,-426.97 212.42,-426.97"/>
<polygon fill="#4d96a6" stroke="#4d96a6" stroke-width="1.8" points="212.06,-429.49 219.26,-426.97 212.06,-424.45 212.06,-429.49"/>
<text xml:space="preserve" text-anchor="middle" x="160.12" y="-430.7" font-family="Helvetica,sans-Serif" font-size="9.50" fill="#245d68">shares implied zone</text>
</g>
<!-- oViewer&#45;&gt;dViewer -->
<!-- oPainter&#45;&gt;oViewer -->
<g id="edge2" class="edge">
<title>oPainter&#45;&gt;oViewer</title>
<path fill="none" stroke="#b23a2b" stroke-width="1.8" d="M67.64,-334.34C66.55,-343.17 65.36,-354.1 64.75,-363.91 64.05,-375.24 63.8,-387.75 63.75,-398.56"/>
<polygon fill="#b23a2b" stroke="#b23a2b" stroke-width="1.8" points="61.23,-398.38 63.75,-405.58 66.27,-398.38 61.23,-398.38"/>
<text xml:space="preserve" text-anchor="middle" x="91.38" y="-364.64" font-family="Helvetica,sans-Serif" font-size="9.50" fill="#8e2c22">looks toward</text>
</g>
<!-- oInfanta&#45;&gt;oViewer -->
<g id="edge3" class="edge">
<title>oInfanta&#45;&gt;oViewer</title>
<path fill="none" stroke="#b23a2b" stroke-width="1.8" d="M200.48,-334.58C204.33,-346.59 206.77,-362.32 199,-373.66 178.75,-403.23 139.18,-416.09 108.1,-421.68"/>
<polygon fill="#b23a2b" stroke="#b23a2b" stroke-width="1.8" points="107.73,-419.18 101.03,-422.82 108.54,-424.16 107.73,-419.18"/>
<text xml:space="preserve" text-anchor="middle" x="229.75" y="-364.64" font-family="Helvetica,sans-Serif" font-size="9.50" fill="#8e2c22">looks toward</text>
</g>
<!-- oCanvas&#45;&gt;oRoyal -->
<g id="edge4" class="edge">
<title>oCanvas&#45;&gt;oRoyal</title>
<path fill="none" stroke="#7c8384" stroke-width="1.8" stroke-dasharray="5,2" d="M327.46,-336.44C326.62,-347.65 324.62,-361.81 320,-373.66 316.65,-382.26 311.64,-390.83 306.42,-398.47"/>
<polygon fill="#7c8384" stroke="#7c8384" stroke-width="1.8" points="304.49,-396.83 302.32,-404.14 308.58,-399.78 304.49,-396.83"/>
<text xml:space="preserve" text-anchor="middle" x="346.14" y="-364.64" font-family="Helvetica,sans-Serif" font-size="9.50" fill="#616768">may depict</text>
</g>
<!-- oMirror&#45;&gt;oRoyal -->
<g id="edge5" class="edge">
<title>oMirror&#45;&gt;oRoyal</title>
<path fill="none" stroke="#b23a2b" stroke-width="2.3" d="M460.23,-426.97C429.08,-426.97 390.11,-426.97 356.75,-426.97"/>
<polygon fill="#b23a2b" stroke="#b23a2b" stroke-width="2.3" points="356.81,-424.45 349.61,-426.97 356.81,-429.49 356.81,-424.45"/>
<text xml:space="preserve" text-anchor="middle" x="403.16" y="-430.7" font-family="Helvetica,sans-Serif" font-size="9.50" fill="#8e2c22">contains image of</text>
</g>
<!-- oRoyal&#45;&gt;oMirror -->
<g id="edge6" class="edge">
<title>oRoyal&#45;&gt;oMirror</title>
<path fill="none" stroke="#b23a2b" stroke-width="2.3" d="M346.34,-417.38C357.13,-416.07 368.26,-414.93 378.78,-414.22 400.4,-412.77 405.92,-412.69 427.53,-414.22 434.77,-414.74 442.31,-415.48 449.8,-416.35"/>
<polygon fill="#b23a2b" stroke="#b23a2b" stroke-width="2.3" points="449.43,-418.84 456.88,-417.23 450.05,-413.84 449.43,-418.84"/>
<text xml:space="preserve" text-anchor="middle" x="403.16" y="-414.95" font-family="Helvetica,sans-Serif" font-size="9.50" fill="#8e2c22">reflected by</text>
</g>
<!-- dViewer&#45;&gt;dInfanta -->
<g id="edge8" class="edge">
<title>dViewer&#45;&gt;dInfanta</title>
<path fill="none" stroke="#4d96a6" stroke-width="1.8" d="M471.29,-166.62C508.82,-161.89 567.33,-148.04 595,-107.59 600.92,-98.94 600.16,-87.9 597.2,-77.87"/>
<polygon fill="#4d96a6" stroke="#4d96a6" stroke-width="1.8" points="599.61,-77.12 594.77,-71.22 594.88,-78.85 599.61,-77.12"/>
<text xml:space="preserve" text-anchor="middle" x="625.54" y="-98.56" font-family="Helvetica,sans-Serif" font-size="9.50" fill="#245d68">looks toward</text>
</g>
<!-- dViewer&#45;&gt;dRoyal -->
<g id="edge14" class="edge">
<title>dViewer&#45;&gt;dRoyal</title>
<path fill="none" stroke="#b23a2b" stroke-width="1.8" stroke-dasharray="5,2" d="M471.26,-170.08C509.81,-170.08 573.52,-170.08 623.12,-170.08"/>
<polygon fill="#b23a2b" stroke="#b23a2b" stroke-width="1.8" points="625.76,-166.48 625.76,-173.68 624.32,-173.68 624.32,-166.48 625.76,-166.48"/>
<polyline fill="none" stroke="#b23a2b" stroke-width="1.8" points="626.48,-170.08 622.88,-170.08"/>
<text xml:space="preserve" text-anchor="middle" x="548.94" y="-173.81" font-family="Helvetica,sans-Serif" font-size="9.50" fill="#8e2c22">implied&#45;zone link weakened</text>
</g>
<!-- dPainter&#45;&gt;dViewer -->
<g id="edge9" class="edge">
<title>dPainter&#45;&gt;dViewer</title>
<path fill="none" stroke="#4d96a6" stroke-width="1.8" d="M440.64,-68.26C439.54,-77.1 438.35,-88.02 437.75,-97.84 436.87,-112.26 436.64,-128.35 436.64,-141.58"/>
<polygon fill="#4d96a6" stroke="#4d96a6" stroke-width="1.8" points="434.12,-141.59 436.68,-148.77 439.16,-141.56 434.12,-141.59"/>
<text xml:space="preserve" text-anchor="middle" x="464.38" y="-98.56" font-family="Helvetica,sans-Serif" font-size="9.50" fill="#245d68">looks toward</text>
</g>
<!-- dInfanta&#45;&gt;dViewer -->
<g id="edge10" class="edge">
<title>dInfanta&#45;&gt;dViewer</title>
<path fill="none" stroke="#4d96a6" stroke-width="1.8" d="M562.32,-68.35C536.99,-88.71 494.94,-122.51 466.61,-145.28"/>
<polygon fill="#4d96a6" stroke="#4d96a6" stroke-width="1.8" points="465.16,-143.21 461.13,-149.69 468.32,-147.14 465.16,-143.21"/>
<text xml:space="preserve" text-anchor="middle" x="550.29" y="-98.56" font-family="Helvetica,sans-Serif" font-size="9.50" fill="#245d68">looks toward</text>
</g>
<!-- dCanvas&#45;&gt;dRoyal -->
<g id="edge11" class="edge">
<title>dCanvas&#45;&gt;dRoyal</title>
<path fill="none" stroke="#7c8384" stroke-width="1.8" stroke-dasharray="5,2" d="M730.05,-70.46C723.27,-89.54 712.87,-118.8 705.16,-140.49"/>
<polygon fill="#7c8384" stroke="#7c8384" stroke-width="1.8" points="702.88,-139.37 702.85,-147 707.63,-141.06 702.88,-139.37"/>
<text xml:space="preserve" text-anchor="middle" x="777.89" y="-98.56" font-family="Helvetica,sans-Serif" font-size="9.50" fill="#616768">still possible, less anchored</text>
</g>
<!-- dBlank&#45;&gt;dRoyal -->
<g id="edge12" class="edge">
<title>dBlank&#45;&gt;dRoyal</title>
<path fill="none" stroke="#b23a2b" stroke-width="1.8" stroke-dasharray="5,2" d="M935.98,-170.08C883.21,-170.08 816.69,-170.08 766.91,-170.08"/>
<polygon fill="#b23a2b" stroke="#b23a2b" stroke-width="1.8" points="764.26,-173.68 764.26,-166.48 765.7,-166.48 765.7,-173.68 764.26,-173.68"/>
<polyline fill="none" stroke="#b23a2b" stroke-width="1.8" points="763.54,-170.08 767.14,-170.08"/>
<text xml:space="preserve" text-anchor="middle" x="849.64" y="-173.81" font-family="Helvetica,sans-Serif" font-size="9.50" fill="#8e2c22">contains image of — DELETED</text>
</g>
<!-- dRoyal&#45;&gt;dBlank -->
<g id="edge13" class="edge">
<title>dRoyal&#45;&gt;dBlank</title>
<path fill="none" stroke="#b23a2b" stroke-width="1.8" stroke-dasharray="5,2" d="M763.35,-160.28C774.25,-159.05 785.43,-158 796.01,-157.33 843.58,-154.34 855.66,-154.81 903.26,-157.33 912.73,-157.84 922.61,-158.56 932.45,-159.41"/>
<polygon fill="#b23a2b" stroke="#b23a2b" stroke-width="1.8" points="935.2,-156.04 934.57,-163.21 933.13,-163.09 933.77,-155.92 935.2,-156.04"/>
<polyline fill="none" stroke="#b23a2b" stroke-width="1.8" points="935.6,-159.69 932.02,-159.37"/>
<text xml:space="preserve" text-anchor="middle" x="849.64" y="-158.06" font-family="Helvetica,sans-Serif" font-size="9.50" fill="#8e2c22">reflected by — DELETED</text>
</g>
<!-- oViewer -->
<g id="node1" class="node">
<title>oViewer</title>
<path fill="#b23a2b" stroke="#b23a2b" stroke-width="1.5" d="M85.64,-444.97C85.64,-444.97 42.36,-444.97 42.36,-444.97 36.36,-444.97 30.36,-438.97 30.36,-432.97 30.36,-432.97 30.36,-420.97 30.36,-420.97 30.36,-414.97 36.36,-408.97 42.36,-408.97 42.36,-408.97 85.64,-408.97 85.64,-408.97 91.64,-408.97 97.64,-414.97 97.64,-420.97 97.64,-420.97 97.64,-432.97 97.64,-432.97 97.64,-438.97 91.64,-444.97 85.64,-444.97"/>
<text xml:space="preserve" text-anchor="middle" x="64" y="-422.52" font-family="Helvetica,sans-Serif" font-size="11.00" fill="#fff9ef">VIEWER</text>
</g>
<!-- oPainter -->
<g id="node2" class="node">
<title>oPainter</title>
<path fill="#fff9ef" stroke="#152329" stroke-width="1.5" d="M93.14,-333.99C93.14,-333.99 46.85,-333.99 46.85,-333.99 40.86,-333.99 34.86,-327.99 34.86,-321.99 34.86,-321.99 34.86,-309.99 34.86,-309.99 34.86,-303.99 40.86,-297.99 46.86,-297.99 46.86,-297.99 93.14,-297.99 93.14,-297.99 99.14,-297.99 105.14,-303.99 105.14,-309.99 105.14,-309.99 105.14,-321.99 105.14,-321.99 105.14,-327.99 99.14,-333.99 93.14,-333.99"/>
<text xml:space="preserve" text-anchor="middle" x="70" y="-311.54" font-family="Helvetica,sans-Serif" font-size="11.00" fill="#152329">PAINTER</text>
</g>
<!-- oInfanta -->
<g id="node3" class="node">
<title>oInfanta</title>
<path fill="#fff9ef" stroke="#152329" stroke-width="1.5" d="M215.39,-333.99C215.39,-333.99 170.61,-333.99 170.61,-333.99 164.61,-333.99 158.61,-327.99 158.61,-321.99 158.61,-321.99 158.61,-309.99 158.61,-309.99 158.61,-303.99 164.61,-297.99 170.61,-297.99 170.61,-297.99 215.39,-297.99 215.39,-297.99 221.39,-297.99 227.39,-303.99 227.39,-309.99 227.39,-309.99 227.39,-321.99 227.39,-321.99 227.39,-327.99 221.39,-333.99 215.39,-333.99"/>
<text xml:space="preserve" text-anchor="middle" x="193" y="-311.54" font-family="Helvetica,sans-Serif" font-size="11.00" fill="#152329">INFANTA</text>
</g>
<!-- oCanvas -->
<g id="node4" class="node">
<title>oCanvas</title>
<path fill="#152329" stroke="#152329" stroke-width="1.5" d="M363.52,-335.91C363.52,-335.91 292.48,-335.91 292.48,-335.91 286.48,-335.91 280.48,-329.91 280.48,-323.91 280.48,-323.91 280.48,-308.07 280.48,-308.07 280.48,-302.07 286.48,-296.07 292.48,-296.07 292.48,-296.07 363.52,-296.07 363.52,-296.07 369.52,-296.07 375.52,-302.07 375.52,-308.07 375.52,-308.07 375.52,-323.91 375.52,-323.91 375.52,-329.91 369.52,-335.91 363.52,-335.91"/>
<text xml:space="preserve" text-anchor="middle" x="328" y="-317.54" font-family="Helvetica,sans-Serif" font-size="11.00" fill="#fff9ef">REVERSE OF</text>
<text xml:space="preserve" text-anchor="middle" x="328" y="-305.54" font-family="Helvetica,sans-Serif" font-size="11.00" fill="#fff9ef">CANVAS</text>
</g>
<!-- oMirror -->
<g id="node5" class="node">
<title>oMirror</title>
<path fill="#b23a2b" stroke="#b23a2b" stroke-width="1.5" d="M569.08,-424.03C569.08,-424.03 569.08,-429.91 569.08,-429.91 569.08,-432.86 566.35,-436.91 563.63,-438.03 563.63,-438.03 544.02,-446.05 544.02,-446.05 541.29,-447.17 535.63,-448.28 532.69,-448.28 532.69,-448.28 501.31,-448.28 501.31,-448.28 498.37,-448.28 492.71,-447.17 489.98,-446.05 489.98,-446.05 470.37,-438.03 470.37,-438.03 467.65,-436.91 464.92,-432.86 464.92,-429.91 464.92,-429.91 464.92,-424.03 464.92,-424.03 464.92,-421.09 467.65,-417.03 470.37,-415.92 470.37,-415.92 489.98,-407.89 489.98,-407.89 492.71,-406.78 498.37,-405.66 501.31,-405.66 501.31,-405.66 532.69,-405.66 532.69,-405.66 535.63,-405.66 541.29,-406.78 544.02,-407.89 544.02,-407.89 563.63,-415.92 563.63,-415.92 566.35,-417.03 569.08,-421.09 569.08,-424.03"/>
<path fill="none" stroke="#b23a2b" stroke-width="1.5" d="M573.08,-423.14C573.08,-423.14 573.08,-430.81 573.08,-430.81 573.08,-434.65 569.52,-439.94 565.97,-441.39 565.97,-441.39 546.46,-449.37 546.46,-449.37 542.91,-450.83 535.52,-452.28 531.68,-452.28 531.68,-452.28 502.32,-452.28 502.32,-452.28 498.48,-452.28 491.09,-450.83 487.54,-449.37 487.54,-449.37 468.03,-441.39 468.03,-441.39 464.48,-439.94 460.92,-434.65 460.92,-430.81 460.92,-430.81 460.92,-423.14 460.92,-423.14 460.92,-419.3 464.48,-414.01 468.03,-412.55 468.03,-412.55 487.54,-404.57 487.54,-404.57 491.09,-403.12 498.48,-401.66 502.32,-401.66 502.32,-401.66 531.68,-401.66 531.68,-401.66 535.52,-401.66 542.91,-403.12 546.46,-404.57 546.46,-404.57 565.97,-412.55 565.97,-412.55 569.52,-414.01 573.08,-419.3 573.08,-423.14"/>
<text xml:space="preserve" text-anchor="middle" x="517" y="-422.52" font-family="Helvetica,sans-Serif" font-size="11.00" fill="#fff9ef">MIRROR</text>
</g>
<!-- oRoyal -->
<g id="node6" class="node">
<title>oRoyal</title>
<path fill="#fff9ef" stroke="#b23a2b" stroke-width="2" d="M333.39,-446.89C333.39,-446.89 234.61,-446.89 234.61,-446.89 228.61,-446.89 222.61,-440.89 222.61,-434.89 222.61,-434.89 222.61,-419.05 222.61,-419.05 222.61,-413.05 228.61,-407.05 234.61,-407.05 234.61,-407.05 333.39,-407.05 333.39,-407.05 339.39,-407.05 345.39,-413.05 345.39,-419.05 345.39,-419.05 345.39,-434.89 345.39,-434.89 345.39,-440.89 339.39,-446.89 333.39,-446.89"/>
<text xml:space="preserve" text-anchor="middle" x="284" y="-428.52" font-family="Helvetica,sans-Serif" font-size="11.00" fill="#152329">ROYAL COUPLE</text>
<text xml:space="preserve" text-anchor="middle" x="284" y="-416.52" font-family="Helvetica,sans-Serif" font-size="11.00" fill="#152329">IMPLIED IN FRONT</text>
</g>
<!-- dViewer -->
<g id="node7" class="node">
<title>dViewer</title>
<path fill="#b23a2b" stroke="#b23a2b" stroke-width="1.5" d="M458.64,-188.08C458.64,-188.08 415.36,-188.08 415.36,-188.08 409.36,-188.08 403.36,-182.08 403.36,-176.08 403.36,-176.08 403.36,-164.08 403.36,-164.08 403.36,-158.08 409.36,-152.08 415.36,-152.08 415.36,-152.08 458.64,-152.08 458.64,-152.08 464.64,-152.08 470.64,-158.08 470.64,-164.08 470.64,-164.08 470.64,-176.08 470.64,-176.08 470.64,-182.08 464.64,-188.08 458.64,-188.08"/>
<text xml:space="preserve" text-anchor="middle" x="437" y="-165.63" font-family="Helvetica,sans-Serif" font-size="11.00" fill="#fff9ef">VIEWER</text>
</g>
<!-- dPainter -->
<g id="node8" class="node">
<title>dPainter</title>
<path fill="#fff9ef" stroke="#152329" stroke-width="1.5" d="M466.14,-67.92C466.14,-67.92 419.86,-67.92 419.86,-67.92 413.86,-67.92 407.86,-61.92 407.86,-55.92 407.86,-55.92 407.86,-43.92 407.86,-43.92 407.86,-37.92 413.86,-31.92 419.86,-31.92 419.86,-31.92 466.14,-31.92 466.14,-31.92 472.14,-31.92 478.14,-37.92 478.14,-43.92 478.14,-43.92 478.14,-55.92 478.14,-55.92 478.14,-61.92 472.14,-67.92 466.14,-67.92"/>
<text xml:space="preserve" text-anchor="middle" x="443" y="-45.47" font-family="Helvetica,sans-Serif" font-size="11.00" fill="#152329">PAINTER</text>
</g>
<!-- dInfanta -->
<g id="node9" class="node">
<title>dInfanta</title>
<path fill="#fff9ef" stroke="#152329" stroke-width="1.5" d="M606.39,-67.92C606.39,-67.92 561.61,-67.92 561.61,-67.92 555.61,-67.92 549.61,-61.92 549.61,-55.92 549.61,-55.92 549.61,-43.92 549.61,-43.92 549.61,-37.92 555.61,-31.92 561.61,-31.92 561.61,-31.92 606.39,-31.92 606.39,-31.92 612.39,-31.92 618.39,-37.92 618.39,-43.92 618.39,-43.92 618.39,-55.92 618.39,-55.92 618.39,-61.92 612.39,-67.92 606.39,-67.92"/>
<text xml:space="preserve" text-anchor="middle" x="584" y="-45.47" font-family="Helvetica,sans-Serif" font-size="11.00" fill="#152329">INFANTA</text>
</g>
<!-- dCanvas -->
<g id="node10" class="node">
<title>dCanvas</title>
<path fill="#152329" stroke="#152329" stroke-width="1.5" d="M772.52,-69.84C772.52,-69.84 701.48,-69.84 701.48,-69.84 695.48,-69.84 689.48,-63.84 689.48,-57.84 689.48,-57.84 689.48,-42 689.48,-42 689.48,-36 695.48,-30 701.48,-30 701.48,-30 772.52,-30 772.52,-30 778.52,-30 784.52,-36 784.52,-42 784.52,-42 784.52,-57.84 784.52,-57.84 784.52,-63.84 778.52,-69.84 772.52,-69.84"/>
<text xml:space="preserve" text-anchor="middle" x="737" y="-51.47" font-family="Helvetica,sans-Serif" font-size="11.00" fill="#fff9ef">REVERSE OF</text>
<text xml:space="preserve" text-anchor="middle" x="737" y="-39.47" font-family="Helvetica,sans-Serif" font-size="11.00" fill="#fff9ef">CANVAS</text>
</g>
<!-- dBlank -->
<g id="node11" class="node">
<title>dBlank</title>
<path fill="#f0ded7" stroke="#b23a2b" stroke-width="1.5" stroke-dasharray="5,2" d="M1105.5,-165.87C1105.5,-165.87 1105.5,-174.29 1105.5,-174.29 1105.5,-178.5 1101.55,-184.17 1097.6,-185.63 1097.6,-185.63 1065.07,-197.66 1065.07,-197.66 1061.12,-199.11 1052.96,-200.57 1048.75,-200.57 1048.75,-200.57 997.25,-200.57 997.25,-200.57 993.04,-200.57 984.88,-199.11 980.93,-197.66 980.93,-197.66 948.4,-185.63 948.4,-185.63 944.45,-184.17 940.5,-178.5 940.5,-174.29 940.5,-174.29 940.5,-165.87 940.5,-165.87 940.5,-161.66 944.45,-155.99 948.4,-154.53 948.4,-154.53 980.93,-142.51 980.93,-142.51 984.88,-141.05 993.04,-139.59 997.25,-139.59 997.25,-139.59 1048.75,-139.59 1048.75,-139.59 1052.96,-139.59 1061.12,-141.05 1065.07,-142.51 1065.07,-142.51 1097.6,-154.53 1097.6,-154.53 1101.55,-155.99 1105.5,-161.66 1105.5,-165.87"/>
<path fill="none" stroke="#b23a2b" stroke-width="1.5" stroke-dasharray="5,2" d="M1109.5,-164.94C1109.5,-164.94 1109.5,-175.22 1109.5,-175.22 1109.5,-180.36 1104.68,-187.28 1099.86,-189.06 1099.86,-189.06 1067.53,-201.01 1067.53,-201.01 1062.71,-202.79 1052.75,-204.57 1047.61,-204.57 1047.61,-204.57 998.39,-204.57 998.39,-204.57 993.25,-204.57 983.29,-202.79 978.47,-201.01 978.47,-201.01 946.14,-189.06 946.14,-189.06 941.32,-187.28 936.5,-180.36 936.5,-175.22 936.5,-175.22 936.5,-164.94 936.5,-164.94 936.5,-159.8 941.32,-152.88 946.14,-151.1 946.14,-151.1 978.47,-139.15 978.47,-139.15 983.29,-137.37 993.25,-135.59 998.39,-135.59 998.39,-135.59 1047.61,-135.59 1047.61,-135.59 1052.75,-135.59 1062.71,-137.37 1067.53,-139.15 1067.53,-139.15 1099.86,-151.1 1099.86,-151.1 1104.68,-152.88 1109.5,-159.8 1109.5,-164.94"/>
<text xml:space="preserve" text-anchor="middle" x="1023" y="-171.63" font-family="Helvetica,sans-Serif" font-size="11.00" fill="#8e2c22">BLANK MIRROR</text>
<text xml:space="preserve" text-anchor="middle" x="1023" y="-159.63" font-family="Helvetica,sans-Serif" font-size="11.00" fill="#8e2c22">REGION</text>
</g>
<!-- dRoyal -->
<g id="node12" class="node">
<title>dRoyal</title>
<path fill="#fff9ef" stroke="#b23a2b" stroke-width="1.5" stroke-dasharray="5,2" d="M750.77,-190C750.77,-190 639.23,-190 639.23,-190 633.23,-190 627.23,-184 627.23,-178 627.23,-178 627.23,-162.16 627.23,-162.16 627.23,-156.16 633.23,-150.16 639.23,-150.16 639.23,-150.16 750.77,-150.16 750.77,-150.16 756.77,-150.16 762.77,-156.16 762.77,-162.16 762.77,-162.16 762.77,-178 762.77,-178 762.77,-184 756.77,-190 750.77,-190"/>
<text xml:space="preserve" text-anchor="middle" x="695" y="-171.63" font-family="Helvetica,sans-Serif" font-size="11.00" fill="#8e2c22">ROYAL COUPLE</text>
<text xml:space="preserve" text-anchor="middle" x="695" y="-159.63" font-family="Helvetica,sans-Serif" font-size="11.00" fill="#8e2c22">NO VISIBLE ANCHOR</text>
</g>
</g>
</svg>
